<svg height="480pt" viewBox="0 0 480 480.00636" width="480pt" xmlns="http://www.w3.org/2000/svg"><path d="m279.996094 240.007812c.046875 44.160157 35.835937 79.949219 80 80v-16c-35.347656 0-64-28.65625-64-64 0-35.347656 28.652344-64 64-64v-16c-44.164063.046876-79.953125 35.835938-80 80zm0 0"/><path d="m476.53125 161.421875-232-160c-2.726562-1.894531-6.347656-1.894531-9.074219 0l-232 160c-2.878906 1.988281-4.132812 5.617187-3.09375 8.960937 1.039063 3.339844 4.132813 5.621094 7.632813 5.625h32v248c0 4.417969 3.582031 8 8 8h280v16c0 17.671876 14.324218 32 32 32 17.671875 0 32-14.328124 32-32v-16h40c4.417968 0 8-3.582031 8-8v-105.769531c37.714844-38.363281 42.671875-98.183593 11.78125-142.230469h20.21875c3.5-.003906 6.589844-2.285156 7.628906-5.625 1.039062-3.34375-.214844-6.972656-3.09375-8.960937zm-236.535156-143.695313 206.3125 142.28125h-8.082032c-20.871093-20.515624-48.96875-32.007812-78.230468-32-2.152344 0-4.257813.199219-6.402344.320313l-109.238281-71.035156c-2.652344-1.722657-6.070313-1.722657-8.71875 0l-158.042969 102.714843h-43.910156zm-184 158.28125h24c1.546875 0 3.0625-.449218 4.359375-1.289062l155.640625-101.175781 90.160156 58.625c-45.59375 12.683593-78.3125 52.636719-81.753906 99.839843h-80.40625c-4.417969 0-8 3.582032-8 8v176h-104zm120 240v-168h72.40625c2.675781 36.992188 23.492187 70.261719 55.59375 88.847657v79.152343zm144 0v-71.511718c5.203125 2.015625 10.550781 3.640625 16 4.855468v10.65625c-4.417969 0-8 3.582032-8 8v48zm32-64.410156c2.65625.191406 5.292968.410156 8 .410156 2.703125 0 5.34375-.21875 8-.410156v8.410156h-16zm24 96.410156c0 8.835938-7.164063 16-16 16-8.835938 0-16-7.164062-16-16v-72h32zm16-32v-48c0-4.417968-3.582032-8-8-8v-10.65625c14.363281-3.167968 27.957031-9.152343 40-17.601562v84.257812zm-32-80c-53.019532 0-96-42.980468-96-96 0-53.019531 42.980468-96 96-96 53.019531 0 96 42.980469 96 96-.058594 52.992188-43.003906 95.941407-96 96zm0 0"/><path d="m191.996094 296.007812h16v48h-16zm0 0"/></svg>